<?xml version="1.0" encoding="utf-8"?>
<!-- Generator: Adobe Illustrator 26.5.0, SVG Export Plug-In . SVG Version: 6.00 Build 0)  -->
<svg version="1.1" id="레이어_1" xmlns="http://www.w3.org/2000/svg" xmlns:xlink="http://www.w3.org/1999/xlink" x="0px"
	 y="0px" viewBox="0 0 199 60" style="enable-background:new 0 0 199 60;" xml:space="preserve">
<style type="text/css">
	.st0{fill:#FFFFFF;}
</style>
<path class="st0" d="M42.8,42.8l-4.1-3.1L38.6,40c-1.3,1.7-3.2,2.7-5.4,2.7c-3.7,0-6.7-3-6.7-6.7c0-3.7,3-6.7,6.7-6.7
	c2,0,3.9,0.9,5.1,2.4l0.2,0.2l4-3.1l-0.2-0.2c-2.3-2.8-5.6-4.4-9.1-4.4c-6.5,0-11.8,5.3-11.8,11.8s5.3,11.8,11.8,11.8
	c3.7,0,7.2-1.7,9.4-4.7L42.8,42.8z"/>
<path class="st0" d="M42.2,47.8h5.5l4.4-10.6l4.4,10.6H62l-9.9-23.9L42.2,47.8z"/>
<path class="st0" d="M63.2,24v23.8h5.1V35.9l5.9,5.6l5.9-5.6v11.9h5.1V24l-11,10.5L63.2,24z"/>
<path class="st0" d="M98.5,24.4l-11.4,0v5.1h11.4c0.8,0,1.5,0.7,1.5,1.5c0,0.4-0.2,0.8-0.4,1l0,0c-0.2,0.3-0.6,0.4-1,0.4H87.2v15.4
	h5.1V37.5H99h0c3.4-0.3,6.1-3.2,6.1-6.6c0-1.8-0.7-3.4-2-4.6C101.9,25.1,100.3,24.4,98.5,24.4z"/>
<path class="st0" d="M107.1,47.8h15.5v-5.1h-10.4v-5.1h10.4v-5.1h-15.5V47.8z"/>
<path class="st0" d="M122.6,24.3h-15.5v5.1h15.5V24.3z"/>
<path class="st0" d="M136.4,36.8l4.6-4.3c0.9-0.9,1.5-2.1,1.5-3.4c0-2.6-2.1-4.8-4.7-4.8h-13.2v23.8l8.1-7.7l4.2,7.3h5.9L136.4,36.8
	z M129.6,29.5h7c0.1,0,0.1,0.1,0.1,0.1c0,0,0,0.1,0,0.1l-7.1,6.7V29.5z"/>
<path class="st0" d="M170.2,10.9h-5.8l-3.4,6.3l-3.4-6.3h-5.8l6.3,11.7l-13.8,25.6h5.8L161,27.9l10.8,20.2h5.8l-13.7-25.6
	L170.2,10.9z"/>
<path class="st0" d="M161.6,48.1h7l-3.9-6.7l-3.2-5.5V48.1z"/>
<path class="st0" d="M160.2,35.9l-3.2,5.5l-3.9,6.7h7V35.9z"/>
</svg>
