<svg width="8" height="14" viewBox="0 0 8 14" fill="none" xmlns="http://www.w3.org/2000/svg">
<path d="M0.921249 5.27344H2.98375V3.36719C2.98375 3.36719 3.00719 3.1224 3.05406 2.63281C3.10094 2.14323 3.35875 1.66406 3.8275 1.19531C4.30667 0.716146 4.87177 0.458333 5.52281 0.421875C6.17385 0.385417 6.9525 0.408854 7.85875 0.492188V2.61719H6.515C6.515 2.61719 6.41083 2.6276 6.2025 2.64844C5.99417 2.66927 5.82229 2.7526 5.68687 2.89844C5.56187 3.05469 5.49156 3.22135 5.47594 3.39844C5.46031 3.57552 5.4525 3.6901 5.4525 3.74219V5.27344H7.78062L7.48375 7.63281H5.43687V13.7266H2.98375V7.63281H0.921249V5.27344Z" fill="black"/>
</svg>
