<svg width="14" height="14" viewBox="0 0 14 14" fill="none" xmlns="http://www.w3.org/2000/svg">
<path d="M7 1.58594C7.88542 1.58594 8.46875 1.58854 8.75 1.59375C9.03125 1.59896 9.34896 1.61198 9.70312 1.63281C10.0156 1.64323 10.2708 1.67188 10.4688 1.71875C10.6667 1.76562 10.8229 1.82552 10.9375 1.89844C11.0833 1.9401 11.2188 2.0026 11.3438 2.08594C11.4688 2.16927 11.5885 2.26302 11.7031 2.36719C11.8177 2.48177 11.9115 2.59635 11.9844 2.71094C12.0573 2.82552 12.1198 2.96615 12.1719 3.13281C12.2031 3.2474 12.2448 3.40104 12.2969 3.59375C12.349 3.78646 12.3854 4.04427 12.4062 4.36719C12.4167 4.71094 12.4245 5.02604 12.4297 5.3125C12.4349 5.59896 12.4375 6.17969 12.4375 7.05469C12.4375 7.9401 12.4349 8.52604 12.4297 8.8125C12.4245 9.09896 12.4167 9.41406 12.4062 9.75781C12.4062 10.0807 12.3828 10.3385 12.3359 10.5312C12.2891 10.724 12.2344 10.8776 12.1719 10.9922C12.1198 11.138 12.0521 11.2734 11.9688 11.3984C11.8854 11.5234 11.7969 11.6432 11.7031 11.7578C11.5885 11.8724 11.474 11.9661 11.3594 12.0391C11.2448 12.112 11.1042 12.1745 10.9375 12.2266C10.8229 12.2578 10.6667 12.2995 10.4688 12.3516C10.2708 12.4036 10.0156 12.4401 9.70312 12.4609C9.34896 12.4818 9.03125 12.4922 8.75 12.4922C8.46875 12.4922 7.88542 12.4922 7 12.4922C6.11458 12.4922 5.53125 12.4922 5.25 12.4922C4.96875 12.4922 4.65104 12.4818 4.29688 12.4609C3.98438 12.4609 3.72917 12.4375 3.53125 12.3906C3.33333 12.3438 3.17708 12.2891 3.0625 12.2266C2.91667 12.1745 2.78125 12.1094 2.65625 12.0312C2.53125 11.9531 2.41146 11.862 2.29688 11.7578C2.18229 11.6432 2.08854 11.5286 2.01562 11.4141C1.94271 11.2995 1.88021 11.1589 1.82812 10.9922C1.78646 10.8776 1.73698 10.724 1.67969 10.5312C1.6224 10.3385 1.58333 10.0807 1.5625 9.75781C1.55208 9.41406 1.54427 9.09896 1.53906 8.8125C1.53385 8.52604 1.53125 7.9401 1.53125 7.05469C1.53125 6.17969 1.53385 5.59896 1.53906 5.3125C1.54427 5.02604 1.55208 4.71094 1.5625 4.36719C1.58333 4.04427 1.61719 3.78646 1.66406 3.59375C1.71094 3.40104 1.76562 3.2474 1.82812 3.13281C1.88021 2.97656 1.94792 2.83854 2.03125 2.71875C2.11458 2.59896 2.20312 2.48177 2.29688 2.36719C2.41146 2.24219 2.52604 2.14323 2.64062 2.07031C2.75521 1.9974 2.89583 1.9401 3.0625 1.89844C3.17708 1.84635 3.33333 1.79167 3.53125 1.73438C3.72917 1.67708 3.98438 1.64323 4.29688 1.63281C4.65104 1.63281 4.96875 1.625 5.25 1.60938C5.53125 1.59375 6.11458 1.58594 7 1.58594ZM7 0.398438C6.10417 0.398438 5.51302 0.398438 5.22656 0.398438C4.9401 0.398438 4.61979 0.408854 4.26562 0.429688C3.91146 0.440104 3.60417 0.471354 3.34375 0.523438C3.08333 0.575521 2.84896 0.643229 2.64062 0.726562C2.42188 0.830729 2.21094 0.9375 2.00781 1.04688C1.80469 1.15625 1.61458 1.30469 1.4375 1.49219C1.25 1.67969 1.09896 1.8724 0.984375 2.07031C0.869792 2.26823 0.765625 2.47656 0.671875 2.69531C0.598958 2.89323 0.533854 3.1276 0.476562 3.39844C0.419271 3.66927 0.380208 3.97656 0.359375 4.32031C0.348958 4.67448 0.341146 4.99479 0.335938 5.28125C0.330729 5.56771 0.328125 6.15885 0.328125 7.05469C0.328125 7.96094 0.330729 8.55729 0.335938 8.84375C0.341146 9.13021 0.348958 9.44531 0.359375 9.78906C0.380208 10.1432 0.416667 10.4505 0.46875 10.7109C0.520833 10.9714 0.588542 11.2109 0.671875 11.4297C0.765625 11.6484 0.869792 11.8516 0.984375 12.0391C1.09896 12.2266 1.25 12.4245 1.4375 12.6328C1.61458 12.8099 1.79948 12.9609 1.99219 13.0859C2.1849 13.2109 2.40104 13.3151 2.64062 13.3984C2.83854 13.4609 3.07031 13.5208 3.33594 13.5781C3.60156 13.6354 3.91146 13.6745 4.26562 13.6953C4.61979 13.7057 4.9401 13.7135 5.22656 13.7188C5.51302 13.724 6.10417 13.7266 7 13.7266C7.89583 13.7266 8.48698 13.724 8.77344 13.7188C9.0599 13.7135 9.38021 13.7057 9.73438 13.6953C10.0885 13.6745 10.3958 13.6406 10.6562 13.5938C10.9167 13.5469 11.151 13.4818 11.3594 13.3984C11.5781 13.2943 11.7839 13.1849 11.9766 13.0703C12.1693 12.9557 12.3646 12.8099 12.5625 12.6328C12.75 12.4453 12.9036 12.2552 13.0234 12.0625C13.1432 11.8698 13.2448 11.6589 13.3281 11.4297C13.401 11.2318 13.4661 10.9974 13.5234 10.7266C13.5807 10.4557 13.6198 10.1432 13.6406 9.78906C13.651 9.44531 13.6589 9.13021 13.6641 8.84375C13.6693 8.55729 13.6719 7.96094 13.6719 7.05469C13.6719 6.15885 13.6693 5.56771 13.6641 5.28125C13.6589 4.99479 13.651 4.67448 13.6406 4.32031C13.6198 3.97656 13.5833 3.67448 13.5312 3.41406C13.4792 3.15365 13.4115 2.91406 13.3281 2.69531C13.2344 2.47656 13.1302 2.27083 13.0156 2.07812C12.901 1.88542 12.75 1.6901 12.5625 1.49219C12.3854 1.29427 12.1953 1.14323 11.9922 1.03906C11.7891 0.934896 11.5781 0.830729 11.3594 0.726562C11.1615 0.664062 10.9297 0.601562 10.6641 0.539062C10.3984 0.476562 10.0885 0.440104 9.73438 0.429688C9.38021 0.408854 9.0599 0.398438 8.77344 0.398438C8.48698 0.398438 7.89583 0.398438 7 0.398438ZM7 3.66406C6.52083 3.66406 6.07552 3.7526 5.66406 3.92969C5.2526 4.10677 4.89323 4.34896 4.58594 4.65625C4.27865 4.96354 4.03646 5.32552 3.85938 5.74219C3.68229 6.15885 3.59375 6.59635 3.59375 7.05469C3.59375 7.52344 3.68229 7.96354 3.85938 8.375C4.03646 8.78646 4.27865 9.14844 4.58594 9.46094C4.89323 9.77344 5.2526 10.0182 5.66406 10.1953C6.07552 10.3724 6.52083 10.4609 7 10.4609C7.47917 10.4609 7.92448 10.3724 8.33594 10.1953C8.7474 10.0182 9.10677 9.77604 9.41406 9.46875C9.72135 9.16146 9.96354 8.80208 10.1406 8.39062C10.3177 7.97917 10.4062 7.53385 10.4062 7.05469C10.4062 6.58594 10.3177 6.14323 10.1406 5.72656C9.96354 5.3099 9.72135 4.95052 9.41406 4.64844C9.10677 4.34635 8.7474 4.10677 8.33594 3.92969C7.92448 3.7526 7.47917 3.66406 7 3.66406ZM7 9.28906C6.38542 9.28906 5.85938 9.07292 5.42188 8.64062C4.98438 8.20833 4.76562 7.67969 4.76562 7.05469C4.76562 6.4401 4.98438 5.91406 5.42188 5.47656C5.85938 5.03906 6.38542 4.82031 7 4.82031C7.61458 4.82031 8.14062 5.03906 8.57812 5.47656C9.01562 5.91406 9.23438 6.4401 9.23438 7.05469C9.23438 7.67969 9.01562 8.20833 8.57812 8.64062C8.14062 9.07292 7.61458 9.28906 7 9.28906ZM11.3594 3.49219C11.3594 3.71094 11.2812 3.89844 11.125 4.05469C10.9688 4.21094 10.7812 4.28906 10.5625 4.28906C10.3438 4.28906 10.1562 4.21094 10 4.05469C9.84375 3.89844 9.76562 3.71094 9.76562 3.49219C9.76562 3.27344 9.84375 3.08594 10 2.92969C10.1562 2.77344 10.3438 2.69531 10.5625 2.69531C10.7812 2.69531 10.9688 2.77344 11.125 2.92969C11.2812 3.08594 11.3594 3.27344 11.3594 3.49219Z" fill="black"/>
</svg>
