<svg width="13" height="16" viewBox="0 0 13 16" fill="none" xmlns="http://www.w3.org/2000/svg">
<path d="M7.84625 10.9141V12.6328C7.84625 12.8203 7.82021 12.9583 7.76813 13.0469C7.71604 13.1354 7.63792 13.1797 7.53375 13.1797C7.47125 13.1797 7.40875 13.1641 7.34625 13.1328C7.28375 13.1016 7.22125 13.0599 7.15875 13.0078V10.5391C7.22125 10.4766 7.28375 10.4323 7.34625 10.4062C7.40875 10.3802 7.47125 10.3672 7.53375 10.3672C7.63792 10.3672 7.71604 10.4115 7.76813 10.5C7.82021 10.5885 7.84625 10.7266 7.84625 10.9141ZM10.6119 10.9141V11.2891H9.8775V10.9141C9.8775 10.7266 9.90875 10.5885 9.97125 10.5C10.0338 10.4115 10.1275 10.3672 10.2525 10.3672C10.3775 10.3672 10.4686 10.4115 10.5259 10.5C10.5832 10.5885 10.6119 10.7266 10.6119 10.9141ZM2.70563 9.13281H3.58063V8.36719H1.03375V9.13281H1.89313V13.7891H2.70563V9.13281ZM5.065 13.7891H5.79938V9.74219H5.065V12.8359C4.98167 12.9505 4.90094 13.0365 4.82281 13.0938C4.74469 13.151 4.66917 13.1797 4.59625 13.1797C4.55459 13.1797 4.51813 13.1667 4.48688 13.1406C4.45563 13.1146 4.43479 13.0703 4.42438 13.0078C4.42438 12.9974 4.42438 12.9688 4.42438 12.9219C4.42438 12.875 4.42438 12.8099 4.42438 12.7266V9.74219H3.69V12.9453C3.69 13.0807 3.69521 13.1979 3.70563 13.2969C3.71604 13.3958 3.73167 13.4766 3.7525 13.5391C3.79417 13.6432 3.85406 13.7214 3.93219 13.7734C4.01031 13.8255 4.11188 13.8516 4.23688 13.8516C4.36188 13.8516 4.49469 13.8099 4.63531 13.7266C4.77594 13.6432 4.91917 13.5182 5.065 13.3516V13.7891ZM8.58063 12.5703V10.9609C8.58063 10.763 8.57542 10.5964 8.565 10.4609C8.55459 10.3255 8.53375 10.2214 8.5025 10.1484C8.46084 10.0026 8.39052 9.89062 8.29156 9.8125C8.19261 9.73438 8.07021 9.69531 7.92438 9.69531C7.78896 9.69531 7.65875 9.73177 7.53375 9.80469C7.40875 9.8776 7.28375 9.98698 7.15875 10.1328V8.36719H6.44V13.7891H7.15875V13.3984C7.28375 13.5443 7.40875 13.6562 7.53375 13.7344C7.65875 13.8125 7.78896 13.8516 7.92438 13.8516C8.07021 13.8516 8.19261 13.8125 8.29156 13.7344C8.39052 13.6562 8.46084 13.5443 8.5025 13.3984C8.53375 13.3255 8.55459 13.2214 8.565 13.0859C8.57542 12.9505 8.58063 12.7786 8.58063 12.5703ZM11.3463 12.4922V12.3828H10.5963C10.5963 12.5286 10.5963 12.6432 10.5963 12.7266C10.5963 12.8099 10.591 12.862 10.5806 12.8828C10.5598 12.987 10.5233 13.0625 10.4713 13.1094C10.4192 13.1562 10.3463 13.1797 10.2525 13.1797C10.1275 13.1797 10.0338 13.1328 9.97125 13.0391C9.90875 12.9453 9.8775 12.8047 9.8775 12.6172V11.9141H11.3463V11.0703C11.3463 10.8516 11.328 10.6641 11.2916 10.5078C11.2551 10.3516 11.2004 10.2214 11.1275 10.1172C11.0233 9.97135 10.8983 9.86458 10.7525 9.79688C10.6067 9.72917 10.44 9.69531 10.2525 9.69531C10.0754 9.69531 9.91396 9.72917 9.76813 9.79688C9.62229 9.86458 9.49209 9.97135 9.3775 10.1172C9.30459 10.2214 9.2499 10.3516 9.21344 10.5078C9.17698 10.6641 9.15875 10.8516 9.15875 11.0703V12.4766C9.15875 12.6953 9.17698 12.8828 9.21344 13.0391C9.2499 13.1953 9.30979 13.3255 9.39313 13.4297C9.49729 13.5651 9.62229 13.6693 9.76813 13.7422C9.91396 13.8151 10.0806 13.8516 10.2681 13.8516C10.466 13.8516 10.6405 13.8151 10.7916 13.7422C10.9426 13.6693 11.065 13.5599 11.1588 13.4141C11.2108 13.3411 11.2499 13.2682 11.2759 13.1953C11.302 13.1224 11.3202 13.0495 11.3306 12.9766C11.3306 12.9453 11.3332 12.8906 11.3384 12.8125C11.3436 12.7344 11.3463 12.6276 11.3463 12.4922ZM6.3775 5.02344V3.30469C6.3775 3.11719 6.34625 2.97656 6.28375 2.88281C6.22125 2.78906 6.13271 2.74219 6.01813 2.74219C5.90354 2.74219 5.815 2.78906 5.7525 2.88281C5.69 2.97656 5.65875 3.11719 5.65875 3.30469V5.02344C5.65875 5.21094 5.69 5.35417 5.7525 5.45312C5.815 5.55208 5.90354 5.60156 6.01813 5.60156C6.13271 5.60156 6.22125 5.55208 6.28375 5.45312C6.34625 5.35417 6.3775 5.21094 6.3775 5.02344ZM12.2525 11.1641C12.2525 11.8099 12.2343 12.3698 12.1978 12.8438C12.1614 13.3177 12.1119 13.7161 12.0494 14.0391C12.0077 14.1953 11.9478 14.3411 11.8697 14.4766C11.7916 14.612 11.69 14.737 11.565 14.8516C11.4504 14.9557 11.3228 15.0391 11.1822 15.1016C11.0416 15.1641 10.8931 15.2057 10.7369 15.2266C10.2369 15.2786 9.60667 15.3203 8.84625 15.3516C8.08584 15.3828 7.20042 15.3984 6.19 15.3984C5.17959 15.3984 4.29677 15.3828 3.54156 15.3516C2.78636 15.3203 2.15354 15.2786 1.64313 15.2266C1.48688 15.2057 1.33844 15.1641 1.19781 15.1016C1.05719 15.0391 0.929586 14.9557 0.815002 14.8516C0.690002 14.737 0.58844 14.612 0.510315 14.4766C0.43219 14.3411 0.372294 14.1953 0.330627 14.0391C0.268127 13.7266 0.218648 13.3333 0.18219 12.8594C0.145732 12.3854 0.127502 11.8203 0.127502 11.1641C0.127502 10.5286 0.145732 9.97135 0.18219 9.49219C0.218648 9.01302 0.268127 8.61719 0.330627 8.30469C0.372294 8.14844 0.43219 8.0026 0.510315 7.86719C0.58844 7.73177 0.690002 7.60677 0.815002 7.49219C0.929586 7.38802 1.05719 7.30208 1.19781 7.23438C1.33844 7.16667 1.49209 7.1276 1.65875 7.11719C2.15875 7.05469 2.78636 7.01042 3.54156 6.98438C4.29677 6.95833 5.17959 6.94531 6.19 6.94531C7.20042 6.94531 8.08584 6.95833 8.84625 6.98438C9.60667 7.01042 10.2369 7.05469 10.7369 7.11719C10.8931 7.1276 11.0416 7.16667 11.1822 7.23438C11.3228 7.30208 11.4504 7.38802 11.565 7.49219C11.69 7.60677 11.7916 7.73177 11.8697 7.86719C11.9478 8.0026 12.0077 8.14844 12.0494 8.30469C12.1119 8.60677 12.1614 8.9974 12.1978 9.47656C12.2343 9.95573 12.2525 10.5182 12.2525 11.1641ZM4.08063 0.726562H4.92438L3.92438 3.99219V6.21094H3.11188V3.99219C3.07021 3.79427 3.00771 3.54948 2.92438 3.25781C2.84104 2.96615 2.73688 2.63281 2.61188 2.25781C2.50771 1.97656 2.41136 1.70833 2.32281 1.45312C2.23427 1.19792 2.15354 0.955729 2.08063 0.726562H2.95563L3.53375 2.88281L4.08063 0.726562ZM7.11188 3.44531V4.88281C7.11188 5.10156 7.09365 5.29167 7.05719 5.45312C7.02073 5.61458 6.96604 5.7474 6.89313 5.85156C6.78896 5.98698 6.66396 6.09115 6.51813 6.16406C6.37229 6.23698 6.20563 6.27344 6.01813 6.27344C5.83063 6.27344 5.66656 6.23698 5.52594 6.16406C5.38531 6.09115 5.26292 5.98698 5.15875 5.85156C5.08584 5.7474 5.02854 5.61458 4.98688 5.45312C4.94521 5.29167 4.92438 5.10156 4.92438 4.88281V3.44531C4.92438 3.22656 4.94521 3.03906 4.98688 2.88281C5.02854 2.72656 5.08584 2.59635 5.15875 2.49219C5.26292 2.35677 5.38531 2.2526 5.52594 2.17969C5.66656 2.10677 5.83063 2.07031 6.01813 2.07031C6.20563 2.07031 6.37229 2.10677 6.51813 2.17969C6.66396 2.2526 6.78896 2.35677 6.89313 2.49219C6.96604 2.59635 7.02073 2.72656 7.05719 2.88281C7.09365 3.03906 7.11188 3.22656 7.11188 3.44531ZM9.86188 2.13281V6.21094H9.11188V5.75781C8.96604 5.92448 8.82281 6.05208 8.68219 6.14062C8.54156 6.22917 8.40354 6.27344 8.26813 6.27344C8.14313 6.27344 8.04156 6.2474 7.96344 6.19531C7.88531 6.14323 7.82542 6.0651 7.78375 5.96094C7.76292 5.89844 7.74729 5.8151 7.73688 5.71094C7.72646 5.60677 7.72125 5.48698 7.72125 5.35156V2.13281H8.47125V5.13281C8.47125 5.21615 8.47125 5.28385 8.47125 5.33594C8.47125 5.38802 8.47125 5.41406 8.47125 5.41406C8.48167 5.47656 8.4999 5.52344 8.52594 5.55469C8.55198 5.58594 8.59104 5.60156 8.64313 5.60156C8.71604 5.60156 8.79156 5.57031 8.86969 5.50781C8.94781 5.44531 9.02854 5.35677 9.11188 5.24219V2.13281H9.86188Z" fill="black"/>
</svg>
